PathFileType	4	(X/Y/Z)	/Users/niels/Desktop/University/Third Semester/Perception and Action/Exam/Gymnastics Motion Tracking/Code for Gym Tracking/Analyzed Data/Webcam_Backflip/id2_4_baseline_Sports2D/id2_4_baseline_Sports2D_px_person00.trc
DataRate	CameraRate	NumFrames	NumMarkers	Units	OrigDataRate	OrigDataStartFrame	OrigNumFrames
29.87551867219917	29.87551867219917	9	22	m	29.87551867219917	60	241
Frame#	Time	Hip			RHip			RKnee			RAnkle			RBigToe			RSmallToe			RHeel			LHip			LKnee			LAnkle			LBigToe			LSmallToe			LHeel			Neck			Head			Nose			RShoulder			RElbow			RWrist			LShoulder			LElbow			LWrist		
		X1	Y1	Z1	X2	Y2	Z2	X3	Y3	Z3	X4	Y4	Z4	X5	Y5	Z5	X6	Y6	Z6	X7	Y7	Z7	X8	Y8	Z8	X9	Y9	Z9	X10	Y10	Z10	X11	Y11	Z11	X12	Y12	Z12	X13	Y13	Z13	X14	Y14	Z14	X15	Y15	Z15	X16	Y16	Z16	X17	Y17	Z17	X18	Y18	Z18	X19	Y19	Z19	X20	Y20	Z20	X21	Y21	Z21	X22	Y22	Z22
60	2.0083333333333333	0.9224710629554087	-0.5471967240430796	0.0	0.9200344555619127	-0.5460438421464799	0.0	0.961586207635646	-0.6612119131025714	0.0	0.9225669357359502	-0.77543700301007	0.0	0.9618217720199421	-0.7949731999421201	0.0	0.951444178904822	-0.7979854185442286	0.0	0.9094634447900413	-0.7921273443393704	0.0	0.9266219468260662	-0.544722398441085	0.0	0.9598380152300386	-0.659659416342334	0.0	0.9276214855489117	-0.766177689867532	0.0	0.967239014870441	-0.7859395711652154	0.0	0.9644590962359031	-0.7824695562887155	0.0	0.912389405032241	-0.7807415074320212	0.0	0.9578814237935919	-0.40043954332649134	0.0	1.0066007214487696	-0.3390066261436183	0.0	1.0002251848906905	-0.3740762540502948	0.0	0.9534407044704029	-0.4026123220640312	0.0	1.0228950565209622	-0.3792882584526176	0.0	1.081166604353513	-0.33586570105663693	0.0	0.952785027566797	-0.40444473980189094	0.0	0.9968779872690496	-0.3826637481201945	0.0	1.0429502894992877	-0.342121538472518	0.0
61	2.0418055555555554	0.918365891549232	-0.5492189868079012	0.0	0.915573552887835	-0.5476190455606464	0.0	0.9651504782137323	-0.6606594414244422	0.0	0.9225733813345617	-0.7729645171520062	0.0	0.9615431823767748	-0.7917613826684448	0.0	0.9507616462394672	-0.795030868504534	0.0	0.9081690294210312	-0.7888010375581055	0.0	0.9220807817406789	-0.5460380875446096	0.0	0.9630745016171215	-0.6586391871917839	0.0	0.9285954478019327	-0.7625819791449968	0.0	0.9670335093772385	-0.7824511909569608	0.0	0.9653941111066935	-0.7792396286303697	0.0	0.9131209680179425	-0.777162562989074	0.0	0.9587905997896519	-0.4051733065004387	0.0	1.008846954926899	-0.34628657276221675	0.0	1.0031001106505857	-0.38187065620615956	0.0	0.9548020568586852	-0.40824046112970763	0.0	1.0286464771913788	-0.3975949460652888	0.0	1.0918285001758652	-0.36438833956302713	0.0	0.9526248596145	-0.4089092917227838	0.0	1.005802039107924	-0.39820813655916915	0.0	1.0591002597674364	-0.3675081685588052	0.0
62	2.075277777777778	0.9149071471665842	-0.5534192444233168	0.0	0.9121282047935516	-0.5514652743787832	0.0	0.9686359517720942	-0.6617853792623256	0.0	0.9228361523094472	-0.7724598116761047	0.0	0.9622808635194341	-0.7904033692512676	0.0	0.9513689533220338	-0.7939643972655358	0.0	0.9074440112780552	-0.7875173589632386	0.0	0.9183405025275582	-0.5495732796299815	0.0	0.9663380920923013	-0.6593367182768468	0.0	0.9296401839450996	-0.7609681513233593	0.0	0.9675538434843682	-0.7812293280661537	0.0	0.9664908962189702	-0.7780206381452854	0.0	0.9138838297153354	-0.7756086185816885	0.0	0.9599578260373741	-0.41174798238605065	0.0	1.010567079109772	-0.3543421397327862	0.0	1.0054919942045617	-0.3911031450190195	0.0	0.9562855836481352	-0.41612836179750634	0.0	1.031345557670218	-0.41913699017535344	0.0	1.0980873215297022	-0.39768862955178497	0.0	0.9528175782233163	-0.4154865259473824	0.0	1.0148590204357804	-0.41667058148975294	0.0	1.0749276711043876	-0.39733082237528766	0.0
63	2.10875	0.9122851760535157	-0.5597546013987107	0.0	0.9098412362111814	-0.5575636746261304	0.0	0.97178346480583	-0.6649163131096816	0.0	0.9231615797603321	-0.7745183072309394	0.0	0.9636426127375732	-0.7914384795455305	0.0	0.9528009344476563	-0.7952034967050687	0.0	0.9072502448378988	-0.7887398493477391	0.0	0.9155863242505884	-0.5552941469663236	0.0	0.9693725086753648	-0.6621103119072251	0.0	0.93050425338575	-0.7620022483701663	0.0	0.9686274969917817	-0.7828090472755886	0.0	0.9674309454278575	-0.7793372940822036	0.0	0.914404004419767	-0.7765981874818251	0.0	0.9612196416231797	-0.4199455020821427	0.0	1.0116852474394524	-0.3630617351327338	0.0	1.0071737410186603	-0.40136855943133937	0.0	0.957482314808298	-0.42596920612385986	0.0	1.0303843025085264	-0.44344952232141316	0.0	1.0990558278340274	-0.4350453560246947	0.0	0.9533940657968432	-0.4241594480005547	0.0	1.021043406730916	-0.4379466269823235	0.0	1.0855077770202863	-0.4311615792697704	0.0
64	2.1422222222222222	0.9106554930023457	-0.5679454499302259	0.0	0.9088383544729702	-0.5655740122632865	0.0	0.974382823980193	-0.6702165570260383	0.0	0.9234576823136745	-0.7793443183922761	0.0	0.9651653378945251	-0.795140898871105	0.0	0.9545310158917951	-0.7989731796872463	0.0	0.9075164428794424	-0.79263178476582	0.0	0.9138703472370235	-0.562911007357286	0.0	0.9718709240003446	-0.6671487467465921	0.0	0.9310241493539432	-0.7659743839325164	0.0	0.9700238585658502	-0.7872525305693012	0.0	0.9681051192716914	-0.7834290537563362	0.0	0.9146567469458206	-0.780237844158016	0.0	0.962433950738066	-0.4292706664626887	0.0	1.0123381212200837	-0.37228801866464334	0.0	1.0082314167897761	-0.41211216111847737	0.0	0.9580581379696624	-0.4372334082433804	0.0	1.0254891846030172	-0.4694373713299822	0.0	1.0940507025467843	-0.4751211041454612	0.0	0.9541642895846911	-0.4344996481800504	0.0	1.0225931739703804	-0.4613717612236657	0.0	1.0880348598339487	-0.4678404311703318	0.0
65	2.1756944444444444	0.9101237141022671	-0.577518904950477	0.0	0.9092125761477748	-0.5749436017624826	0.0	0.9762576638286238	-0.6776485062852811	0.0	0.9237459439611538	-0.7866820677612859	0.0	0.966475997581158	-0.8014746639334356	0.0	0.9561389812326417	-0.8052471072016134	0.0	0.9081551993778946	-0.7989931835454337	0.0	0.9131937544418827	-0.5719893027037316	0.0	0.9734986415211199	-0.6744452571731551	0.0	0.9311284428932701	-0.772845003341506	0.0	0.9714712327529477	-0.7942303678333105	0.0	0.9685398823916979	-0.7902249798305101	0.0	0.914780229894058	-0.7863674830264038	0.0	0.9635315145310129	-0.43905263049644017	0.0	1.012762206820117	-0.3817364629861757	0.0	1.008976247237479	-0.42267744320887274	0.0	0.9579441340849584	-0.4492344479144082	0.0	1.0167145842960437	-0.49549316231857105	0.0	1.082625952827625	-0.5158986071814564	0.0	0.954807665066475	-0.44575654599527664	0.0	1.0189255695444184	-0.4858226149647326	0.0	1.0817738471386686	-0.5055955767176706	0.0
66	2.2091666666666665	0.9107101622087773	-0.5878074607254057	0.0	0.9108911146451253	-0.5850215217120404	0.0	0.977243081768817	-0.6868434272305799	0.0	0.9240590080646455	-0.7958510829891385	0.0	0.9673407568373198	-0.8099919490239824	0.0	0.957346931322003	-0.8135991238697057	0.0	0.9090220721163258	-0.8072140836610202	0.0	0.9136242815243975	-0.5819845780753026	0.0	0.9740573112323038	-0.6836770016329506	0.0	0.9308454637614657	-0.7822387250236036	0.0	0.9726456556551862	-0.8030796456554141	0.0	0.9687392331876714	-0.7992666742584957	0.0	0.9148834233755417	-0.7946332064673453	0.0	0.9645526365270767	-0.4486070161052896	0.0	1.0131585810618409	-0.3909745795283382	0.0	1.0097625653573827	-0.4324718733338501	0.0	0.9573361312242803	-0.46120695867811284	0.0	1.0044134429173917	-0.5197999052173686	0.0	1.0645529265671951	-0.5548384070387891	0.0	0.9551405396657144	-0.457075892113149	0.0	1.010111225008286	-0.5097639124498216	0.0	1.0669647732786218	-0.5422287142762202	0.0
67	2.242638888888889	0.912337528157704	-0.5979587706756742	0.0	0.9135937665400216	-0.595078071432998	0.0	0.9772577442827176	-0.6970205315693145	0.0	0.924356446677039	-0.8058399904353549	0.0	0.9676522741357684	-0.8197382872858178	0.0	0.9580003572997884	-0.823106979378035	0.0	0.9099084224290801	-0.8163387157584636	0.0	0.9152397423415227	-0.5921840451521865	0.0	0.9735901671463179	-0.6940634251598882	0.0	0.9302307838102498	-0.7933672903945646	0.0	0.9732032037460283	-0.8128572279676691	0.0	0.9685610451468686	-0.8097106066982169	0.0	0.9148920076073753	-0.8043828440649023	0.0	0.9656267361873087	-0.4573150868856557	0.0	1.0136843529960173	-0.3994523368214621	0.0	1.0108438878306174	-0.44103469471397966	0.0	0.9565603302497024	-0.47232170490851993	0.0	0.9892754960385605	-0.5405880767870436	0.0	1.039975464954339	-0.5891671038716402	0.0	0.9552669253188208	-0.467632640916357	0.0	0.9967450965649887	-0.5312764697047744	0.0	1.044392644117535	-0.5752339987727311	0.0
68	2.276111111111111	0.914855986984211	-0.607003244955987	0.0	0.916894996036379	-0.6042461365835508	0.0	0.976401578804197	-0.7070625702460612	0.0	0.9245456227184743	-0.8154713758650639	0.0	0.9673971699821967	-0.8293976068939329	0.0	0.9580357248434771	-0.8325413920897217	0.0	0.910617653643471	-0.825265277243567	0.0	0.9179918447427232	-0.6016537963008735	0.0	0.9723419731140324	-0.704372124287919	0.0	0.9293370533193877	-0.8049688901265875	0.0	0.9729094183703048	-0.8224555163428409	0.0	0.9677818875977374	-0.820421621812236	0.0	0.9146021429832951	-0.8145550733814736	0.0	0.9668997185164132	-0.4646073149866593	0.0	1.0145185443330667	-0.40655833520954787	0.0	1.012326231420861	-0.4479399564078497	0.0	0.9559255171152969	-0.48167102139875245	0.0	0.9723240565166229	-0.5562378611405931	0.0	1.0097305777024832	-0.6161390021596955	0.0	0.955491467406435	-0.47663267059686	0.0	0.9800040300932799	-0.5482991273503682	0.0	1.0154413166902467	-0.601930534112923	0.0
